<mxfile host="app.diagrams.net" modified="2024-01-22T07:02:24.056Z" agent="Mozilla/5.0 (Windows NT 10.0; Win64; x64) AppleWebKit/537.36 (KHTML, like Gecko) Chrome/120.0.0.0 Safari/537.36" version="22.1.21" etag="W7dH-fnn2qfB1JPS7O_i" type="github">
  <diagram name="페이지-1" id="JB-Fa8y8QE4pFSvhaT2N">
    <mxGraphModel>
      <root>
        <mxCell id="0" />
        <mxCell id="1" parent="0" />
      </root>
    </mxGraphModel>
  </diagram>
</mxfile>
